<svg width="512" height="512" viewBox="0 0 512 512" fill="none" xmlns="http://www.w3.org/2000/svg">
    <rect width="512" height="512" rx="112" fill="#FFFFFF"/>

    <!-- Clear S silhouette -->
    <path
        d="M360 104H205C158 104 120 142 120 189C120 236 158 274 205 274H307C334 274 356 296 356 323C356 350 334 372 307 372H150"
        stroke="#111827"
        stroke-width="74"
        stroke-linecap="round"
        stroke-linejoin="round"
    />

    <!-- Inner route -->
    <path
        d="M360 104H205C158 104 120 142 120 189C120 236 158 274 205 274H307C334 274 356 296 356 323C356 350 334 372 307 372H150"
        stroke="#4F7CFF"
        stroke-width="44"
        stroke-linecap="round"
        stroke-linejoin="round"
    />

    <!-- Highlight for layered/site identity -->
    <path
        d="M348 104H205C164 104 132 136 132 189"
        stroke="#AFC6FF"
        stroke-width="18"
        stroke-linecap="round"
        stroke-linejoin="round"
        opacity="0.95"
    />

    <!-- Top browser/site card -->
    <rect x="267" y="69" width="124" height="82" rx="22" fill="#111827"/>
    <circle cx="292" cy="94" r="7" fill="#FF5F57"/>
    <circle cx="314" cy="94" r="7" fill="#FFBD2E"/>
    <circle cx="336" cy="94" r="7" fill="#28C840"/>
    <rect x="292" y="118" width="58" height="9" rx="4.5" fill="#FFFFFF"/>

    <!-- Middle code node -->
    <circle cx="256" cy="274" r="43" fill="#FFFFFF"/>
    <circle cx="256" cy="274" r="29" fill="#111827"/>

    <path
        d="M247 263L236 274L247 285"
        stroke="#FFFFFF"
        stroke-width="7"
        stroke-linecap="round"
        stroke-linejoin="round"
    />
    <path
        d="M265 263L276 274L265 285"
        stroke="#FFFFFF"
        stroke-width="7"
        stroke-linecap="round"
        stroke-linejoin="round"
    />

    <!-- Bottom local stack -->
    <rect x="107" y="338" width="160" height="42" rx="17" fill="#DCE7FF"/>
    <rect x="91" y="369" width="160" height="42" rx="17" fill="#AFC6FF"/>
    <rect x="75" y="400" width="160" height="42" rx="17" fill="#4F7CFF"/>

    <circle cx="113" cy="421" r="7" fill="#FFFFFF"/>
    <rect x="132" y="414" width="55" height="14" rx="7" fill="#FFFFFF" opacity="0.9"/>

    <!-- Connection/status nodes -->
    <circle cx="360" cy="104" r="18" fill="#FFFFFF"/>
    <circle cx="360" cy="104" r="10" fill="#4F7CFF"/>

    <circle cx="150" cy="372" r="18" fill="#FFFFFF"/>
    <circle cx="150" cy="372" r="10" fill="#111827"/>
</svg>